<svg version="1.2" xmlns="http://www.w3.org/2000/svg" viewBox="0 0 384 512" width="384" height="512"><style>.a{fill:#ea002a}</style><path class="a" d="m215.7 499.2c51.3-64.2 168.3-219.8 168.3-307.2 0-106-86-192-192-192-106 0-192 86-192 192 0 87.4 117 243 168.3 307.2 12.3 15.3 35.1 15.3 47.4 0zm-23.7-371.2c17 0 33.3 6.7 45.3 18.7 12 12 18.7 28.3 18.7 45.3 0 17-6.7 33.3-18.7 45.3-12 12-28.3 18.7-45.3 18.7-17 0-33.3-6.7-45.3-18.7-12-12-18.7-28.3-18.7-45.3 0-17 6.7-33.3 18.7-45.3 12-12 28.3-18.7 45.3-18.7z"/></svg>